<svg fill="#000000" width="20px" height="20px" viewBox="0 0 0.9 0.9" version="1.1" preserveAspectRatio="xMidYMid meet" xmlns="http://www.w3.org/2000/svg" xmlns:xlink="http://www.w3.org/1999/xlink"><title>logout-solid</title><path d="M0.575 0.1H0.175a0.05 0.05 0 0 0 -0.05 0.05v0.6a0.05 0.05 0 0 0 0.05 0.05h0.4a0.05 0.05 0 0 0 0.05 -0.05v-0.15h-0.234a0.025 0.025 0 0 1 -0.025 -0.025 0.025 0.025 0 0 1 0.025 -0.025H0.625V0.15a0.05 0.05 0 0 0 -0.05 -0.05" class="clr-i-solid clr-i-solid-path-1"/><path d="M0.704 0.432a0.025 0.025 0 0 0 -0.035 0.035L0.753 0.55H0.625v0.05h0.128l-0.085 0.087a0.025 0.025 0 1 0 0.035 0.035l0.146 -0.145Z" class="clr-i-solid clr-i-solid-path-2"/><path x="0" y="0" width="36" height="36" fill-opacity="0" d="M0 0H0.9V0.9H0V0z"/></svg>